<svg height="512pt" viewBox="-49 0 512 512" width="512pt" xmlns="http://www.w3.org/2000/svg"><path d="m414 256c0 114.324219-92.675781 207-207 207s-207-92.675781-207-207 92.675781-207 207-207 207 92.675781 207 207zm0 0" fill="#f0c48a"/><path d="m68.914062 188.089844v-142.75s4.390626-39.457032 39.390626-39.457032h189.726562s47.054688 3.316407 47.054688 47.054688v156.148438h-33.515626v-142.109376s-2.226562-26.527343-26.527343-26.527343-156.082031 0-156.082031 0-26.527344 1.75-26.527344 26.527343v128.144532zm0 0" fill="#d3e6f8"/><path d="m89.84375 64.539062v93.734376h9.132812v-92.179688l29.980469-31.324219h-9.347656c-16.4375 0-29.765625 13.328125-29.765625 29.769531zm0 0" fill="#a4cff2"/><path d="m331.496094 27.082031h9.132812v131.191407h-9.132812zm0 0" fill="#a4cff2"/><path d="m43.269531 163.980469h93.152344v186.859375h-93.152344zm0 0" fill="#a4cff2"/><path d="m277.578125 163.980469h93.15625v186.859375h-93.15625zm0 0" fill="#a4cff2"/><path d="m277.578125 350.839844h-141.15625v-217.792969c0-14.789063 11.988281-26.777344 26.777344-26.777344h87.605469c14.785156 0 26.773437 11.988281 26.773437 26.777344zm0 0" fill="#fd919e"/><path d="m112.183594 350.839844h189.632812v95.195312h-189.632812zm0 0" fill="#fd919e"/><path d="m273.941406 354.613281h26.773438v88.238281h-26.773438zm0 0" fill="#e8677d"/><path d="m275.933594 308.4375h-26.773438v-200.957031c14.785156 0 26.773438 11.988281 26.773438 26.777343zm0 0" fill="#e8677d"/><path d="m343.859375 163.980469h26.777344v186.859375h-26.777344zm0 0" fill="#7babf1"/><path d="m109.984375 163.980469h26.777344v186.859375h-26.777344zm0 0" fill="#7babf1"/><path d="m147.160156 446.035156h119.683594v60.082032h-119.683594zm0 0" fill="#d3e6f8"/><path d="m241.402344 446.035156h26.773437v61.652344h-26.773437zm0 0" fill="#a4cff2"/><path d="m138.921875 373.058594h62.773437v50.761718h-62.773437zm0 0" fill="#e8677d"/><path d="m252.101562 209.082031c0 24.910157-20.191406 45.101563-45.101562 45.101563s-45.101562-20.191406-45.101562-45.101563c0-24.90625 20.191406-45.101562 45.101562-45.101562s45.101562 20.195312 45.101562 45.101562zm0 0" fill="#e8677d"/><path d="m136.421875 308.4375h141.15625v38.363281h-141.15625zm0 0" fill="#7babf1"/><g fill="#4c4372"><path d="m136.421875 356.71875h-93.152344c-3.25 0-5.882812-2.632812-5.882812-5.878906v-186.859375c0-3.246094 2.632812-5.878907 5.882812-5.878907h93.152344c3.246094 0 5.882813 2.632813 5.882813 5.878907v186.859375c0 3.246094-2.632813 5.878906-5.882813 5.878906zm-87.273437-11.757812h81.394531v-175.097657h-81.394531zm0 0"/><path d="m277.578125 356.71875h-141.15625c-3.246094 0-5.882813-2.632812-5.882813-5.878906v-217.792969c0-18.007813 14.652344-32.65625 32.65625-32.65625h87.605469c18.007813 0 32.65625 14.648437 32.65625 32.65625v217.792969c0 3.246094-2.632812 5.878906-5.878906 5.878906zm-135.273437-11.757812h129.390624v-211.914063c0-11.523437-9.371093-20.894531-20.890624-20.894531h-87.605469c-11.523438 0-20.894531 9.371094-20.894531 20.894531zm0 0"/><path d="m301.816406 451.917969h-189.632812c-3.246094 0-5.882813-2.632813-5.882813-5.878907v-95.199218c0-3.246094 2.632813-5.878906 5.882813-5.878906h189.632812c3.246094 0 5.882813 2.632812 5.882813 5.878906v95.195312c-.003907 3.25-2.636719 5.882813-5.882813 5.882813zm-183.753906-11.761719h177.875v-83.4375h-177.875zm0 0"/><path d="m266.84375 512h-119.6875c-3.246094 0-5.878906-2.632812-5.878906-5.882812v-60.082032c0-3.246094 2.632812-5.878906 5.878906-5.878906h119.683594c3.25 0 5.882812 2.632812 5.882812 5.878906v60.082032c0 3.25-2.632812 5.882812-5.878906 5.882812zm-113.804688-11.761719h107.921876v-48.320312h-107.921876zm0 0"/><path d="m370.730469 356.71875h-93.152344c-3.246094 0-5.882813-2.632812-5.882813-5.878906v-186.859375c0-3.246094 2.632813-5.878907 5.882813-5.878907h93.152344c3.25 0 5.882812 2.632813 5.882812 5.878907v186.859375c0 3.246094-2.632812 5.878906-5.882812 5.878906zm-87.273438-11.757812h81.394531v-175.097657h-81.394531zm0 0"/><path d="m207 260.066406c-28.113281 0-50.980469-22.871094-50.980469-50.984375 0-28.109375 22.867188-50.980469 50.980469-50.980469s50.984375 22.871094 50.984375 50.980469c0 28.113281-22.871094 50.984375-50.984375 50.984375zm0-90.203125c-21.628906 0-39.222656 17.59375-39.222656 39.21875 0 21.628907 17.597656 39.222657 39.222656 39.222657s39.222656-17.59375 39.222656-39.222657c0-21.625-17.59375-39.21875-39.222656-39.21875zm0 0"/><path d="m277.578125 314.316406h-141.15625c-3.246094 0-5.882813-2.632812-5.882813-5.878906 0-3.25 2.636719-5.882812 5.882813-5.882812h141.15625c3.246094 0 5.878906 2.632812 5.878906 5.882812 0 3.246094-2.632812 5.878906-5.878906 5.878906zm0 0"/><path d="m345.085938 356.71875c-3.246094 0-5.882813-2.632812-5.882813-5.878906v-297.902344c0-22.707031-18.46875-41.175781-41.171875-41.175781h-182.0625c-22.703125 0-41.171875 18.472656-41.171875 41.175781v297.902344c0 3.246094-2.636719 5.878906-5.882813 5.878906-3.25 0-5.882812-2.632812-5.882812-5.878906v-297.902344c.003906-29.191406 23.75-52.9375 52.9375-52.9375h182.0625c29.1875 0 52.9375 23.746094 52.9375 52.9375v297.902344c-.003906 3.246094-2.632812 5.878906-5.882812 5.878906zm0 0"/><path d="m311.566406 166.054688c-3.246094 0-5.878906-2.632813-5.878906-5.882813v-93.195313c0-11.386718-9.261719-20.648437-20.644531-20.648437h-156.085938c-11.382812 0-20.644531 9.261719-20.644531 20.648437v93.199219c0 3.246094-2.632812 5.878907-5.878906 5.878907-3.25 0-5.882813-2.632813-5.882813-5.878907v-93.199219c0-17.871093 14.539063-32.40625 32.40625-32.40625h156.085938c17.867187 0 32.40625 14.535157 32.40625 32.40625v93.199219c0 3.246094-2.632813 5.878907-5.882813 5.878907zm0 0"/><path d="m136.421875 263.292969h-67.507813c-3.25 0-5.882812-2.632813-5.882812-5.882813 0-3.246094 2.632812-5.878906 5.882812-5.878906h67.507813c3.246094 0 5.882813 2.632812 5.882813 5.878906 0 3.25-2.632813 5.882813-5.882813 5.882813zm0 0"/><path d="m343.859375 263.292969h-59.890625c-3.25 0-5.882812-2.632813-5.882812-5.882813 0-3.246094 2.632812-5.878906 5.882812-5.878906h59.890625c3.25 0 5.882813 2.632812 5.882813 5.878906-.003907 3.25-2.636719 5.882813-5.882813 5.882813zm0 0"/><path d="m201.695312 429.699219h-62.773437c-3.246094 0-5.878906-2.632813-5.878906-5.878907v-50.761718c0-3.25 2.632812-5.882813 5.878906-5.882813h62.773437c3.246094 0 5.878907 2.632813 5.878907 5.882813v50.761718c0 3.246094-2.632813 5.878907-5.878907 5.878907zm-56.894531-11.757813h51.011719v-39.003906h-51.011719zm0 0"/><path d="m237.769531 377.679688c0 4.285156-3.476562 7.757812-7.757812 7.757812-4.285157 0-7.757813-3.472656-7.757813-7.757812 0-4.285157 3.472656-7.757813 7.757813-7.757813 4.28125 0 7.757812 3.472656 7.757812 7.757813zm0 0"/><path d="m237.769531 398.4375c0 4.285156-3.476562 7.757812-7.757812 7.757812-4.285157 0-7.757813-3.472656-7.757813-7.757812s3.472656-7.757812 7.757813-7.757812c4.28125 0 7.757812 3.472656 7.757812 7.757812zm0 0"/><path d="m237.769531 419.199219c0 4.285156-3.476562 7.757812-7.757812 7.757812-4.285157 0-7.757813-3.472656-7.757813-7.757812 0-4.285157 3.472656-7.757813 7.757813-7.757813 4.28125 0 7.757812 3.472656 7.757812 7.757813zm0 0"/><path d="m262.546875 377.679688c0 4.285156-3.472656 7.757812-7.757813 7.757812-4.285156 0-7.757812-3.472656-7.757812-7.757812 0-4.285157 3.472656-7.757813 7.757812-7.757813 4.285157 0 7.757813 3.472656 7.757813 7.757813zm0 0"/><path d="m262.546875 398.4375c0 4.285156-3.472656 7.757812-7.757813 7.757812-4.285156 0-7.757812-3.472656-7.757812-7.757812s3.472656-7.757812 7.757812-7.757812c4.285157 0 7.757813 3.472656 7.757813 7.757812zm0 0"/><path d="m262.546875 419.199219c0 4.285156-3.472656 7.757812-7.757813 7.757812-4.285156 0-7.757812-3.472656-7.757812-7.757812 0-4.285157 3.472656-7.757813 7.757812-7.757813 4.285157 0 7.757813 3.472656 7.757813 7.757813zm0 0"/><path d="m287.328125 377.679688c0 4.285156-3.472656 7.757812-7.757813 7.757812-4.285156 0-7.757812-3.472656-7.757812-7.757812 0-4.285157 3.472656-7.757813 7.757812-7.757813 4.285157 0 7.757813 3.472656 7.757813 7.757813zm0 0"/><path d="m287.328125 398.4375c0 4.285156-3.472656 7.757812-7.757813 7.757812-4.285156 0-7.757812-3.472656-7.757812-7.757812s3.472656-7.757812 7.757812-7.757812c4.285157 0 7.757813 3.472656 7.757813 7.757812zm0 0"/><path d="m287.328125 419.199219c0 4.285156-3.472656 7.757812-7.757813 7.757812-4.285156 0-7.757812-3.472656-7.757812-7.757812 0-4.285157 3.472656-7.757813 7.757812-7.757813 4.285157 0 7.757813 3.472656 7.757813 7.757813zm0 0"/></g></svg>