<svg height="512pt" viewBox="-6 0 512 512" width="512pt" xmlns="http://www.w3.org/2000/svg"><path d="m500.800781 261.601562c0 138.289063-112.109375 250.398438-250.402343 250.398438-138.289063 0-250.398438-112.109375-250.398438-250.398438 0-138.292968 112.109375-250.402343 250.398438-250.402343 138.292968 0 250.402343 112.109375 250.402343 250.402343zm0 0" fill="#7956ba"/><path d="m500.800781 261.601562c0 138.289063-112.109375 250.398438-250.402343 250.398438-138.289063 0-250.398438-112.109375-250.398438-250.398438 0-138.292968 112.109375-250.402343 250.398438-250.402343 138.292968 0 250.402343 112.109375 250.402343 250.402343zm0 0" fill="#f84e82"/><path d="m398.96875 0h-243.863281l-37.96875 49.585938-46.054688 60.152343v326.605469c45.480469 46.667969 109.007813 75.65625 179.316407 75.65625 68.117187 0 129.867187-27.210938 175.011718-71.339844v-414.21875c0-14.601562-11.839844-26.441406-26.441406-26.441406zm0 0" fill="#fdd33a"/><path d="m154.375 100.480469v-13.597657c-3.484375 10.574219-13.496094 18.210938-25.308594 18.210938h-54.433594l-3.550781 4.644531v326.605469c17.171875 17.621094 36.910157 32.71875 58.621094 44.683594v-354.167969c13.777344-.914063 24.671875-12.371094 24.671875-26.378906zm0 0" fill="#f9bd3a"/><path d="m155.105469 0-84.023438 109.738281h57.988281c14.707032 0 26.628907-11.839843 26.628907-26.445312zm0 0" fill="#ffe6a9"/><g fill="#4b358e"><path d="m277.484375 272.84375c0 14.394531-11.667969 26.0625-26.0625 26.0625s-26.0625-11.667969-26.0625-26.0625 11.667969-26.0625 26.0625-26.0625 26.0625 11.667969 26.0625 26.0625zm0 0"/><path d="m357.714844 262.621094h-24.160156c-4.621094-37.316406-34.15625-67-71.402344-71.84375v-23.714844c0-5.644531-4.578125-10.222656-10.21875-10.222656-5.648438 0-10.222656 4.578125-10.222656 10.222656v23.582031c-37.726563 4.433594-67.761719 34.320313-72.421876 71.976563h-23.136718c-5.644532 0-10.222656 4.578125-10.222656 10.222656s4.578124 10.21875 10.222656 10.21875h23.136718c4.660157 37.660156 34.695313 67.546875 72.421876 71.976562v23.585938c0 5.640625 4.578124 10.21875 10.222656 10.21875 5.644531 0 10.21875-4.578125 10.21875-10.21875v-23.714844c37.25-4.847656 66.78125-34.53125 71.402344-71.847656h24.160156c5.644531 0 10.21875-4.574219 10.21875-10.21875s-4.574219-10.222656-10.21875-10.222656zm-106.292969 72.566406c-34.378906 0-62.34375-27.96875-62.34375-62.34375 0-34.378906 27.964844-62.34375 62.34375-62.34375s62.34375 27.964844 62.34375 62.34375c0 34.375-27.96875 62.34375-62.34375 62.34375zm0 0"/></g></svg>